<svg height="24" viewBox="0 0 24 24" width="24" xmlns="http://www.w3.org/2000/svg"><g transform="translate(-16 -292)"><circle cx="12" cy="12" fill="#ed6b62" r="12" transform="translate(16 292)"/><path d="M155.126-23.33a16.122,16.122,0,0,1,.555,3.6,2.6,2.6,0,0,1-2.558,2.8,2.73,2.73,0,0,1-2.723-2.8l.023-.27A10.327,10.327,0,0,0,148-13.331a6,6,0,0,0,6,6,6,6,0,0,0,6-6A12.838,12.838,0,0,0,155.126-23.33ZM153.783-9.58a2.382,2.382,0,0,1-2.415-2.355,2.349,2.349,0,0,1,2.108-2.34,5.785,5.785,0,0,0,3.466-1.935,10.467,10.467,0,0,1,.443,3.03A3.6,3.6,0,0,1,153.783-9.58Z" fill="#fff" transform="translate(-126 319.33)"/></g></svg>