<svg height="24" viewBox="0 0 24 24" width="24" xmlns="http://www.w3.org/2000/svg"><g transform="translate(-16 -292)"><circle cx="12" cy="12" fill="#ed6b62" r="12" transform="translate(16 292)"/><path d="M14.823,3.524H12.1V2h5.333V7.333H15.9V4.6L12.987,7.516a3.857,3.857,0,0,1,.632,2.1,3.81,3.81,0,0,1-3.048,3.733v1.6H12.1v1.524H10.571V18H9.048V16.476H7.524V14.952H9.048v-1.6A3.81,3.81,0,0,1,9.81,5.81a3.77,3.77,0,0,1,2.1.632l2.918-2.918M9.81,7.333A2.286,2.286,0,1,0,12.1,9.619,2.286,2.286,0,0,0,9.81,7.333Z" fill="#fff" transform="translate(17 294)"/></g></svg>